{
	"asset":{
		"version":"2.0",
		"generator":"Houdini GLTF 2.0 Exporter"
	},
	"accessors":[
		{
			"bufferView":0,
			"componentType":5125,
			"count":160704,
			"type":"SCALAR",
			"min":[0
			],
			"max":[160703
			]
		},
		{
			"bufferView":1,
			"componentType":5126,
			"count":160704,
			"type":"VEC3",
			"min":[-1.9173373,-0.119803399,-4.281003
			],
			"max":[2.2072556,6.61598825,4.30991411
			]
		},
		{
			"bufferView":2,
			"componentType":5126,
			"count":160704,
			"type":"VEC3",
			"min":[-0.99989599,-0.999945879,-0.999526501
			],
			"max":[0.999976993,0.999974072,0.999981999
			]
		},
		{
			"bufferView":3,
			"componentType":5126,
			"count":160704,
			"type":"VEC2",
			"min":[0.000300000014,0.000299990177
			],
			"max":[0.996990025,0.985710025
			]
		}
	],
	"buffers":[
		{
			"uri":"dinosaur1_data.bin",
			"byteLength":5785344,
			"name":"main_buffer"
		}
	],
	"bufferViews":[
		{
			"buffer":0,
			"byteLength":642816,
			"target":34963
		},
		{
			"buffer":0,
			"byteOffset":642816,
			"byteLength":1928448,
			"target":34962
		},
		{
			"buffer":0,
			"byteOffset":2571264,
			"byteLength":1928448,
			"target":34962
		},
		{
			"buffer":0,
			"byteOffset":4499712,
			"byteLength":1285632,
			"target":34962
		}
	],
	"nodes":[
		{
			"name":"geo1",
			"mesh":0
		}
	],
	"meshes":[
		{
			"primitives":[
				{
					"attributes":{
						"TEXCOORD_0":3,
						"NORMAL":2,
						"POSITION":1
					},
					"indices":0
				}
			]
		}
	],
	"scenes":[
		{
			"nodes":[0
			]
		}
	],
	"scene":0
}
