{
	"asset":{
		"version":"2.0",
		"generator":"Houdini GLTF 2.0 Exporter"
	},
	"accessors":[
		{
			"bufferView":0,
			"componentType":5123,
			"count":11550,
			"type":"SCALAR",
			"min":[0
			],
			"max":[11549
			]
		},
		{
			"bufferView":1,
			"componentType":5126,
			"count":11550,
			"type":"VEC3",
			"min":[-1.33354974,0,-1.73420465
			],
			"max":[1.33354974,5.01238728,2.34473062
			]
		},
		{
			"bufferView":2,
			"componentType":5126,
			"count":11550,
			"type":"VEC3",
			"min":[-0.999827445,-0.999992073,-0.999658585
			],
			"max":[0.999827445,0.998493195,0.999964058
			]
		},
		{
			"bufferView":3,
			"componentType":5126,
			"count":11550,
			"type":"VEC2",
			"min":[0.0137731209,0.0118831396
			],
			"max":[0.987443149,0.989946663
			]
		}
	],
	"buffers":[
		{
			"uri":"dinosaur2_data.bin",
			"byteLength":392700,
			"name":"main_buffer"
		}
	],
	"bufferViews":[
		{
			"buffer":0,
			"byteLength":23100,
			"target":34963
		},
		{
			"buffer":0,
			"byteOffset":23100,
			"byteLength":138600,
			"target":34962
		},
		{
			"buffer":0,
			"byteOffset":161700,
			"byteLength":138600,
			"target":34962
		},
		{
			"buffer":0,
			"byteOffset":300300,
			"byteLength":92400,
			"target":34962
		}
	],
	"nodes":[
		{
			"name":"geo1",
			"mesh":0
		}
	],
	"meshes":[
		{
			"primitives":[
				{
					"attributes":{
						"TEXCOORD_0":3,
						"NORMAL":2,
						"POSITION":1
					},
					"indices":0
				}
			]
		}
	],
	"scenes":[
		{
			"nodes":[0
			]
		}
	],
	"scene":0
}
