{
	"asset":{
		"version":"2.0",
		"generator":"Houdini GLTF 2.0 Exporter"
	},
	"accessors":[
		{
			"bufferView":0,
			"componentType":5125,
			"count":304224,
			"type":"SCALAR",
			"min":[0
			],
			"max":[50695
			]
		},
		{
			"bufferView":1,
			"componentType":5126,
			"count":50696,
			"type":"VEC3",
			"min":[-0.505895317,7.36722586e-06,-0.276576191
			],
			"max":[0.506033719,1.00000739,0.276447117
			]
		},
		{
			"bufferView":2,
			"componentType":5126,
			"count":50696,
			"type":"VEC3",
			"min":[-0.999959171,-0.999999583,-0.999996781
			],
			"max":[0.999993563,0.999999583,0.99996233
			]
		}
	],
	"buffers":[
		{
			"uri":"dog_data.bin",
			"byteLength":2433600
		}
	],
	"bufferViews":[
		{
			"buffer":0,
			"byteLength":1216896,
			"target":34963
		},
		{
			"buffer":0,
			"byteOffset":1216896,
			"byteLength":608352,
			"target":34962
		},
		{
			"buffer":0,
			"byteOffset":1825248,
			"byteLength":608352,
			"target":34962
		}
	],
	"nodes":[
		{
			"mesh":0
		}
	],
	"meshes":[
		{
			"primitives":[
				{
					"attributes":{
						"NORMAL":2,
						"POSITION":1
					},
					"indices":0
				}
			]
		}
	],
	"scenes":[
		{
			"nodes":[0
			]
		}
	],
	"scene":0
}
