{
	"asset":{
		"version":"2.0",
		"generator":"Houdini GLTF 2.0 Exporter"
	},
	"accessors":[
		{
			"bufferView":0,
			"componentType":5125,
			"count":302508,
			"type":"SCALAR",
			"min":[0
			],
			"max":[50419
			]
		},
		{
			"bufferView":1,
			"componentType":5126,
			"count":50420,
			"type":"VEC3",
			"min":[-0.253179044,-0.00099381886,-0.406133771
			],
			"max":[0.253166884,0.999006152,0.406418443
			]
		},
		{
			"bufferView":2,
			"componentType":5126,
			"count":50420,
			"type":"VEC3",
			"min":[-0.999998987,-1,-0.999982595
			],
			"max":[0.999994338,0.999975145,0.999994457
			]
		}
	],
	"buffers":[
		{
			"uri":"head_data.bin",
			"byteLength":2420112
		}
	],
	"bufferViews":[
		{
			"buffer":0,
			"byteLength":1210032,
			"target":34963
		},
		{
			"buffer":0,
			"byteOffset":1210032,
			"byteLength":605040,
			"target":34962
		},
		{
			"buffer":0,
			"byteOffset":1815072,
			"byteLength":605040,
			"target":34962
		}
	],
	"nodes":[
		{
			"mesh":0
		}
	],
	"meshes":[
		{
			"primitives":[
				{
					"attributes":{
						"NORMAL":2,
						"POSITION":1
					},
					"indices":0
				}
			]
		}
	],
	"scenes":[
		{
			"nodes":[0
			]
		}
	],
	"scene":0
}
