{
  "accessors": [
    {
      "bufferView": 2,
      "componentType": 5126,
      "count": 28472,
      "max": [
        1.9173372983932495,
        4.3099141120910645,
        6.6159882545471191
      ],
      "min": [
        -2.2072556018829346,
        -4.2810029983520508,
        -0.11980339884757996
      ],
      "type": "VEC3"
    },
    {
      "bufferView": 2,
      "byteOffset": 341664,
      "componentType": 5126,
      "count": 28472,
      "max": [
        0.99998146295547485,
        0.99979472160339355,
        0.99998241662979126
      ],
      "min": [
        -0.99989432096481323,
        -0.99900138378143311,
        -0.99998354911804199
      ],
      "type": "VEC3"
    },
    {
      "bufferView": 3,
      "componentType": 5126,
      "count": 28472,
      "max": [
        0.99998468160629272,
        0.99999868869781494,
        0.99991083145141602,
        1
      ],
      "min": [
        -0.99999791383743286,
        -0.999747633934021,
        -0.99994134902954102,
        -1
      ],
      "type": "VEC4"
    },
    {
      "bufferView": 1,
      "componentType": 5126,
      "count": 28472,
      "max": [
        0.99699002504348755,
        0.9857100248336792
      ],
      "min": [
        0.00030000001424923539,
        0.00030000001424923539
      ],
      "type": "VEC2"
    },
    {
      "bufferView": 0,
      "componentType": 5125,
      "count": 160704,
      "max": [
        28471
      ],
      "min": [
        0
      ],
      "type": "SCALAR"
    },
    {
      "bufferView": 4,
      "componentType": 5126,
      "count": 1,
      "max": [
        1,
        0,
        0,
        0,
        0,
        1,
        0,
        0,
        0,
        0,
        1,
        0,
        0,
        0,
        0,
        1
      ],
      "min": [
        1,
        0,
        0,
        0,
        0,
        1,
        0,
        0,
        0,
        0,
        1,
        0,
        0,
        0,
        0,
        1
      ],
      "type": "MAT4"
    }
  ],
  "asset": {
    "extras": {
      "author": "Shreveport Arcade (https://sketchfab.com/318arcade)",
      "license": "CC-BY-4.0 (http://creativecommons.org/licenses/by/4.0/)",
      "source": "https://sketchfab.com/models/c743536f3c8e48049a00f19c8f8f6d4a",
      "title": "Dinosaur"
    },
    "generator": "Sketchfab-3.50.4",
    "version": "2.0"
  },
  "bufferViews": [
    {
      "buffer": 0,
      "byteLength": 642816,
      "byteOffset": 0,
      "name": "floatBufferViews",
      "target": 34963
    },
    {
      "buffer": 0,
      "byteLength": 227776,
      "byteOffset": 642816,
      "byteStride": 8,
      "name": "floatBufferViews",
      "target": 34962
    },
    {
      "buffer": 0,
      "byteLength": 683328,
      "byteOffset": 870592,
      "byteStride": 12,
      "name": "floatBufferViews",
      "target": 34962
    },
    {
      "buffer": 0,
      "byteLength": 455552,
      "byteOffset": 1553920,
      "byteStride": 16,
      "name": "floatBufferViews",
      "target": 34962
    },
    {
      "buffer": 0,
      "byteLength": 64,
      "byteOffset": 2009472,
      "byteStride": 64,
      "name": "floatBufferViews"
    }
  ],
  "buffers": [
    {
      "byteLength": 2009536,
      "uri": "scene.bin"
    }
  ],
  "images": [
    {
      "uri": "textures/Material_baseColor.png"
    }
  ],
  "materials": [
    {
      "doubleSided": true,
      "emissiveFactor": [
        0,
        0,
        0
      ],
      "name": "Material",
      "pbrMetallicRoughness": {
        "baseColorFactor": [
          1,
          1,
          1,
          1
        ],
        "baseColorTexture": {
          "index": 0,
          "texCoord": 0
        },
        "metallicFactor": 0,
        "roughnessFactor": 0.59999999999999998
      }
    }
  ],
  "meshes": [
    {
      "name": "Body_0",
      "primitives": [
        {
          "attributes": {
            "NORMAL": 1,
            "POSITION": 0,
            "TANGENT": 2,
            "TEXCOORD_0": 3
          },
          "indices": 4,
          "material": 0,
          "mode": 4
        }
      ]
    }
  ],
  "nodes": [
    {
      "children": [
        1
      ],
      "name": "RootNode (gltf orientation matrix)",
      "rotation": [
        -0.70710678118654746,
        -0,
        -0,
        0.70710678118654757
      ]
    },
    {
      "children": [
        2
      ],
      "name": "RootNode (model correction matrix)"
    },
    {
      "children": [
        3,
        7,
        9,
        11
      ],
      "name": "Root"
    },
    {
      "children": [
        4,
        5
      ],
      "name": "Dinosaur"
    },
    {
      "name": "Dinosaur_rootJoint"
    },
    {
      "children": [
        6
      ],
      "name": "Body"
    },
    {
      "mesh": 0,
      "name": "Body_0"
    },
    {
      "children": [
        8
      ],
      "matrix": [
        1,
        0,
        0,
        0,
        0,
        1,
        0,
        0,
        0,
        0,
        1,
        0,
        4.7858499999999999,
        -4.4700300000000004,
        2.7931600000000003,
        1
      ],
      "name": "Point"
    },
    {
      "name": "Point"
    },
    {
      "children": [
        10
      ],
      "matrix": [
        1,
        0,
        0,
        0,
        0,
        1,
        0,
        0,
        0,
        0,
        1,
        0,
        -5.1139499999999991,
        -0.28618000000000005,
        9.3918300000000006,
        1
      ],
      "name": "Point.001"
    },
    {
      "name": "Point.001"
    },
    {
      "children": [
        12
      ],
      "matrix": [
        1,
        0,
        0,
        0,
        0,
        1,
        0,
        0,
        0,
        0,
        1,
        0,
        -5.0801499999999997,
        6.7892200000000011,
        -4.6829599999999996,
        1
      ],
      "name": "Point.002"
    },
    {
      "name": "Point.002"
    }
  ],
  "samplers": [
    {
      "magFilter": 9729,
      "minFilter": 9987,
      "wrapS": 10497,
      "wrapT": 10497
    }
  ],
  "scene": 0,
  "scenes": [
    {
      "name": "OSG_Scene",
      "nodes": [
        0
      ]
    }
  ],
  "skins": [
    {
      "inverseBindMatrices": 5,
      "joints": [
        4
      ],
      "skeleton": 4
    }
  ],
  "textures": [
    {
      "sampler": 0,
      "source": 0
    }
  ]
}

